<?xml version="1.0" encoding="utf-8"?>
<!-- Generator: Adobe Illustrator 27.6.1, SVG Export Plug-In . SVG Version: 6.00 Build 0)  -->
<svg version="1.1" id="Layer_1" xmlns="http://www.w3.org/2000/svg" xmlns:xlink="http://www.w3.org/1999/xlink" x="0px" y="0px"
	 viewBox="0 0 260 260" style="enable-background:new 0 0 260 260;" xml:space="preserve">
<style type="text/css">
	.st0{fill-rule:evenodd;clip-rule:evenodd;fill:#EF6F26;}
	.st1{fill-rule:evenodd;clip-rule:evenodd;fill:#FFFFFF;}
</style>
<path class="st0" d="M217.9,33.4c-5.6-5-11.6-9.5-18-13.4c-2-1.3-4.1-2.5-6.3-3.6c-16.4-9-35-14.5-54.8-15.6
	c-1.9-0.1-3.8-0.2-5.7-0.2l-1.9,0C59.4,0.5,1.1,58.5,1.1,130c0,40.9,19.1,77.4,48.9,101.1l2.6,2c16.1,12.2,35.1,20.7,55.8,24.3
	c7.4,1.3,15,2,22.8,2c2.1,0,4.1,0,6.2-0.1c1.7-0.1,3.3-0.2,4.9-0.3c1.7-0.1,3.3-0.3,5-0.5c1.7-0.2,3.4-0.4,5.1-0.7
	c1.9-0.3,3.7-0.7,5.6-1c1.7-0.4,3.5-0.8,5.2-1.2c6.1-1.5,12.1-3.5,17.8-5.9c0.8-0.4,1.7-0.7,2.6-1.1c45.8-20,77.8-65.6,77.8-118.6
	c0-7.3-0.6-14.5-1.8-21.5l-0.6-3.3c-0.5-2.6-1.1-5.2-1.8-7.8c-0.5-1.8-1-3.7-1.6-5.5c-5.9-19.1-16.1-36.2-29.5-50.4l-2.4-2.5
	C221.8,37.1,219.9,35.2,217.9,33.4z"/>
<path class="st1" d="M202.3,21.2c-0.8-0.5-1.6-1.1-2.5-1.6l-1.2-0.8c-9.2,1.2-16.6,4-23.7,8c-9.4,5.2-18,10-25.6,17.1
	c-3.6,3.4-7.9,6.3-11.2,9.9c-3.5,3.8-7,7.2-10.5,11.1c-6.6,7.2-13.4,15.6-19,23.9c-11.3,17-22.7,34.6-30.3,55.3
	c-7.5,20.5-15.5,43.2-15.2,71.3c0.1,4.7,0.9,9.1,1.5,12.5c0.8,4.1,1.3,6.6,2.3,11.5c0.2,1.2,0.6,2.3,1,3.5c1.3,0.7,2.6,1.4,3.9,2.1
	c-0.7-1.6-1.2-2.9-1.5-3.7c-2-6.8-4-16.2-4.1-25c-0.4-30.9,8.8-58.2,18.3-79.1c5.4-11.9,10.2-21,16.5-31.9c2.8-4.9,6.5-9.9,9.8-14.6
	c3.6-5.3,7.1-9,10.6-13.8c11.2-15.8,33.5-35.9,51-45.4C179.6,27.6,191.1,22.1,202.3,21.2z M148,1.3c-1.8-0.2-3.7-0.4-5.5-0.6
	c-1.5,0.8-2.9,1.7-4.2,2.6c-13.2,9.3-20.9,15.6-32.2,26.8c-8.6,8.5-20.2,21.6-26.8,31.9C72,73.5,63.1,86,57.1,98.9
	c-3.1,6.8-6,13.4-9.2,20.3c-3,6.5-5.3,14.6-7.9,21.6c-1.4,3.9-5.3,19.4-5.7,23.8c-0.4,3.7-1.3,9.1-2,13c-1,5.3-0.5,8.3-0.7,14.4
	c-0.1,5.6-0.1,15.5,1,22.3c1.3,1.5,2.6,2.9,3.9,4.3c-1.3-5-2.1-10.5-2.2-16.4l-0.1-12c-0.2-21.3,9.8-55.6,16.5-70.4
	c9.7-21.7,18.3-37.5,31-55.9c5.4-7.9,12.5-16.9,18.9-24c7.3-8,14.2-13.9,22-21.3C129.5,12,139.2,6.1,148,1.3z M92.9,253.6
	c1.1,0.3,2.2,0.7,3.3,1c-1.5-5.4-3.5-9.1-4.4-17c-1.1-9.1-0.7-13.6-0.3-22.7c0.4-10.6,5.5-31.6,8.6-39.6
	c4.6-11.8,8.3-23.3,14.2-33.8c6.1-10.9,11.3-19.8,18.1-29.8c4.6-6.7,15.6-21.7,21.4-26.5c3.5-2.8,8.1-8.4,11.9-12
	c3.4-3.2,9.3-8.3,13.1-10.7c5.3-3.4,8.7-6,14.6-9.2c6.2-3.4,9.7-4.5,16.7-7c4.8-1.7,12.5-2.9,18.7-2.1c-0.9-1-1.9-2.1-2.8-3.1
	L226,41l-3.6,0.1c-20.2,0.4-41.6,16.1-53.5,25.8c-13.8,11.3-27.6,26.9-37.9,41.9c-9.6,13.9-22.4,34.7-28.4,51.7
	c-1.7,4.7-4,9.8-5.4,14.6c-1.5,5.1-3,11-4.6,15.8c-1.9,5.5-4.9,28.4-4.5,36.2c0.2,4.3,0.5,11.8,1.3,15.7
	C90,245.6,92.9,253.6,92.9,253.6z M101.7,256c2.3,0.5,4.5,1,6.8,1.4l0.1,0l2.3-0.6c0,0.3,0.1,0.7,0.1,1c1,0.2,2,0.3,3.1,0.4
	c-0.4-1.2-0.6-2.2-0.6-2.9l9.5-3.4c0.2,1.8,1.1,4.9,1.7,7.3c1,0,2,0.1,3,0.1c-1-3.7-1.8-7.3-1.8-8.6c0,0,4.3-2.1,7.9-5
	c0,0-0.3,2.5,0.1,5.1c0.5,3.2,0.7,5.3,1.9,8.3l0,0.2l1.6-0.1l1.3-0.1c-1.4-4.6-2.3-10.1-2.3-15.3l6.4-3.8c0.1,8,0.6,13.3,2.2,18.7
	l2.3-0.3l0.3,0c-1.2-4-2-9.5-2.2-13.3c-0.1-2-0.4-6.5-0.4-6.5s3.2-1.5,4.7-2.9c-0.4,3.6-0.1,8.1,0.5,12.5c0.5,3.5,1,6.3,2.2,9.5
	c0.9-0.1,1.8-0.3,2.6-0.5c-2-4.8-2.1-11.9-2.3-18.7c-0.1-2.2,0-5,0-5s2.1-1.7,3.6-3.3c0,0-0.5,3.6-0.3,9.2c0.2,7.4,1,12,2.7,16.5
	l-1.7,1l0.9-0.2c1.7-0.4,3.5-0.8,5.2-1.2c1.9-0.5,3.8-1,5.7-1.6c-0.2-0.3-0.4-0.6-0.5-0.9l2.6-1.9c0.6,0.4,1.3,1,1.9,1.6
	c0.9-0.3,1.8-0.6,2.7-0.9c-0.9-0.9-1.6-1.7-2.1-2.6c0,0,2.6-1.8,3-2.1c0.2,0.4,1.9,2.1,3.2,3.2l1.4-0.6c0.6-0.3,1.3-0.6,2-0.9
	c-1.9-1.5-3.2-2.3-4.3-4l2.9-2.2c2.9,2,4.4,3.3,5.9,4.1c1.3-0.6,2.7-1.3,4-2c-3.2-1-6.8-3.4-7.3-5l2.6-1.9c3.1,2.1,5,3.9,9.9,4
	c1.9-1.1,3.7-2.2,5.5-3.4c-0.2,0-0.5,0.1-0.7,0.1l-6.1,0.1c-2.3,0-5.1-1.3-6.1-2.7c1.5-2.5,13.2-14.3,16.2-17.6
	c4.4-4.8,11.3-13.4,15-18.9c9.8-14.5,17.1-27,24.9-43.4c2.2,1.5,4.7,6.7,4.9,10.6c0.1,1.3,0.3,3.8,0.3,5.1c0,2.6-0.6,7.8-1.4,10.2
	c-2.2,6.1-4.2,11.3-8,16.9c-3.4,5.4-7.4,10.9-11.5,15.5c-1.8,2-3.7,4.2-5.3,5.8c12.7-13,22.7-28.7,29.1-46.1l-0.3,0.5
	c-0.1-8.1-0.9-19.8-6.3-21.2l1.7-4.2c2.9,2,6.2,8.4,6.7,13.3c0.3,3.1,0.1,6.4,0.1,6.4c0.9-2.7,1.6-5.5,2.3-8.3
	c-0.9-6.4-4-11.6-7.8-14.2l1.3-3.7c2.7,0.7,6.4,6.4,8,11.1c0.3-1.9,0.6-3.7,0.9-5.6c-1.9-3.7-5-6.8-7.7-8.2l0.8-3.7
	c2.4,0.2,5.4,3,7.5,6.2c0.1-1.4,0.2-2.8,0.3-4.3l-0.3-0.3c-0.8-0.8-1.8-2.1-2.7-2.7c-0.8-0.6-2.3-1.7-3.2-2.2
	c0.4-1.8,0.4-2.5,0.8-3.7c1.3,0.3,3.5,1.8,5.5,3.7c0-0.9,0-1.9,0-2.8l0-1.1c-2.1-1.7-3.6-2.4-4.3-2.9l0.4-3.7
	c1.1,0.4,2.2,0.7,3.8,1.6c-0.1-1.2-0.1-2.4-0.2-3.6c-0.7-0.3-1.5-0.6-2.3-0.8l0.4-3.7c0.4,0,0.9,0.1,1.5,0.2
	c-0.1-1.2-0.3-2.3-0.4-3.5l-0.2,0l0.1-0.7c-0.2-1.1-0.3-2.2-0.5-3.3l-0.6-3.3l-0.4-1.8l-0.1,0.8c0,0-4.4-0.7-10.8,0
	c-4.5,0.5-10,2.3-10,2.3l1.3-5.6c0,0,3.7-1.5,9.1-2c5.8-0.6,9.1-0.1,9.5,0l-0.4-1.5l-0.4-1.5c0,0-4.1-0.4-9,0.1
	c-4.5,0.5-8.1,1.7-8.1,1.7l1.9-7.8c0,0,4-0.7,6.7-0.9c3.1-0.3,5.9-0.3,6.3-0.2c-0.3-1-0.7-1.9-1-2.9c0,0-2.7-0.2-5.6,0
	c-2.8,0.2-5.7,0.7-5.7,0.7l1.3-9.2c0,0,1.2-0.1,3.5-0.2c1.5-0.1,3,0,3,0c-0.5-1.1-1-2.2-1.5-3.2l-4.7,0.1l-0.1-9.1
	c-1.1-1.9-2.3-3.8-3.5-5.7c-37.9,1-74.6,38.8-90.8,62.9c-18.7,27.9-42.4,66.6-41.8,113.8l2,18.6L101.7,256z M247.3,107.1
	c-4.1,0.6-10.1,2.7-10.1,2.7l-2.1,4.8c1.6-0.7,5.3-2.2,11.3-3c7.9-1,10.8-0.4,10.8-0.4l0.9-4.4C258.1,106.7,252.3,106.3,247.3,107.1
	z M246.1,114.6c-6.5,0.5-12.7,3.6-12.7,3.6l-1,3.7c0,0,5.2-3,12.6-3.8c5.8-0.6,10.6,0.2,10.6,0.2l1-3.7
	C256.6,114.6,250.6,114.3,246.1,114.6z M243.7,121.4c-5.4,0.6-10.7,3.4-11.7,3.8l-2.2,3.7c4.4-1.8,9.1-4.2,15-4.5
	c3.6-0.2,9.2,0.8,9.2,0.8l0.8-4.2C254.8,121,248.4,120.9,243.7,121.4z M243.8,127.7c-8.4,1.3-13.3,4.2-15.2,5l-2,3.2
	c2.5-1.2,8.2-4.2,16.1-5.1c5-0.6,7.6,0.6,9.1,0.9l1.3-3.6C251.8,128,247.9,127.1,243.8,127.7z M238.3,134.9
	c-5,0.9-13.1,5.5-13.1,5.5l-0.6,2.1c0,0,6.8-4.1,14.6-5c6.4-0.8,10.3,0.6,10.3,0.6l1-3.4C250.6,134.7,245.7,133.6,238.3,134.9z
	 M220.2,148.8l-1.3,2.6c3.2-2.4,11-6.4,16.9-7.4c6.5-1.1,9.6,0.2,11.8,0.9l1-4.1c0,0-3.1-0.5-4.1-0.5
	C243,140.1,234.2,138.2,220.2,148.8z M204.8,168l-10.7,15.5l0.7,0.5L204.8,168z M213.8,153.8c-8.3,6.1-27.2,31.6-29.6,43.2
	c1.5-2.8,2.9-6.9,6.3-12.3c2.4-4.2,4.4-7.3,6.9-11.2c2.6-3.8,5.5-6.7,7.9-10.2C207.2,160.5,213.1,157.2,213.8,153.8z M206.7,156.6
	c2.8-3.1,11.9-9.5,12.6-12.6c-8.9,6.6-18.3,16.8-24.8,26.1c-3.6,5.2-16.7,27.2-16.8,34c1.7-1.2,6.4-14.7,8.1-17.8
	c3.4-6.3,5.6-10.1,9.5-15.8C198.9,165.1,202.5,161.3,206.7,156.6z M214.9,144c2.4-2,7.1-4,7.8-7.5c-11.1,6.5-23.9,21-31.3,31.8
	c-4.4,6.4-8.3,12.7-11.6,20c-1.7,3.7-8.2,18.8-8.5,22.9c2.4-1.7,6.8-18.3,9.2-22.5c4.4-7.5,6.6-12.9,11.7-20
	c4.8-6.6,8.5-11.7,14.4-17.2C209.7,148.7,211.5,146.7,214.9,144z M216.7,137.1c2.9-2.4,8.7-4.6,9.4-8.1
	c-10.1,2.7-31.5,27.5-37.5,36.4c-5.4,8.1-9,14.6-13.7,23.4c-2,3.7-9.3,23-9.3,28l2.1-2c-0.1-12.9,16.5-41.7,22.5-50
	c5.8-7.9,10.4-12.3,16.7-19.3C209.9,142.2,213.4,139.9,216.7,137.1z M239,146.4c-7.7,0.7-21.2,7.8-24.2,12.1
	c-2.4,3.3-4.4,7.8-7,11.6c-2.4,3.5-5.1,7.2-7.2,10.8c-4.9,8.2-11.5,11.9-14.5,22.1c-3.3,10.9-4.3,20.7,0.8,30.6
	c9.8-7.2,26.2-28.3,33.6-39c4.5-6.5,25-40.1,25.5-47.4C245.9,147.2,244.3,145.9,239,146.4z M229.5,120.6c-5.7,1.5-20,14-24.5,18.2
	c-7.8,7.1-13,15-19.6,23.3c-12,15.3-21.1,37.1-25.8,59.9l2.6-1.9c-0.1-7.7,7.5-26.3,10.1-32.1c4.5-10,9.6-17.7,15.4-26.2
	c4.5-6.6,13.3-17.1,19.3-22.2c3.7-3.2,7.4-6.4,11.4-9.3C221.5,127.9,229.2,125.1,229.5,120.6z M227.2,118.3c5.4-2.4,3.2-1.5,5.6-6.5
	c-6.7,1.8-24.4,15.2-28.9,20.1c-8.5,9.4-15,15.7-22.6,26.6c-6.2,8.9-13.5,21-17.8,31.5c-3.4,8.2-10.8,27.5-10.9,38.2
	c2.5-2.4,3.8-3.4,3.8-3.4c3.1-20.2,7.1-27.1,9.2-33c3-8.6,12.4-25,17.7-31.7c1.8-2.3,3.6-4.9,5.3-7.4c1.9-2.7,3.8-4.1,5.7-6.5
	c4.1-5.3,7.7-7.8,11.8-12.5c2.1-2.3,10.7-9,13.6-10.7C222.1,121.6,225,119.2,227.2,118.3z M206.2,125.9c5.3-4.4,9.4-7.4,15.2-11.3
	c2.9-2,5.2-3.4,8.6-4.9c3.9-1.8,5.3-1.7,5.4-7.7c-9.4,2.5-27,15.5-33.4,21.8c-4.9,4.8-8.7,9.1-13.3,14.2c-4.7,5.2-7.7,10.1-12,15.5
	c-11.1,14.1-31.5,54.9-31.2,79.9l4.2-2.5c-0.1-12.5,7.7-33.1,11.6-42.4c5-11.7,12.5-24.7,19.7-34.2
	C188.8,144,196.3,134.1,206.2,125.9z M160.1,140.1c-4.9,7.1-9.2,14.3-13.6,22.1c-4.5,8-7.2,15.8-10.9,24.4
	c-3.2,7.2-6.7,18.8-8.2,27.3c-2.2,12.7-2.2,33.2-2.2,33.2c5.8-2.8,8.1-4.8,8.1-4.8l0-3.1c-0.4-34.6,20.7-74.7,35.2-94.6
	c8.7-12,18.9-25.1,30.2-34.3c8.6-7,27.6-21.8,40.5-23.2l1-9.7l-1.5,0c-5.9,0.1-21.2,7.3-25.3,10c-8,5.4-13,8.9-20.2,14.9
	C181.5,111.8,168.8,127.3,160.1,140.1z M178.4,222.6c0.1,6.3,1.2,11.4,3.7,15.2l2.7-2.2c-2.6-5-4.2-7.9-4.2-15.4
	c0,0-0.4-5.7,2.5-17.8l-2.3,3.4C178.8,213.9,178.3,217.4,178.4,222.6z M201.3,120.4c5.5-4.5,10.3-8.7,16.2-12.5
	c2.9-1.8,15.7-9.5,19.1-9.6l1.7-7.9c-45.5,12.2-103.1,90.3-102.4,150.2l6.4-4.4c-0.3-30.1,19.7-66.5,32.1-84.5
	C181.1,141.9,192.6,127.6,201.3,120.4z M173.6,228.6c0.2,5.6,3.2,13.4,3.2,13.4l3-1.9c-2.4-4.6-4.2-8.7-4.1-15.7
	c0.1-3.7,0.7-14.8,0.7-14.8l-2.1,3.6C174.4,213.3,173.5,218.6,173.6,228.6z M240.6,62c-41,0.8-75.2,41.3-93.2,67.3
	c-12.2,17.6-30.5,46.3-35.8,85.8c-3.5,26,0.4,37.5,0.4,37.5l10.4-3.9c0,0-2.3-25.6,6.2-54c4.2-13.8,15-38.2,32-60.4
	c11.1-14.6,19.5-25,33.6-36.8c4.8-4,15-12.1,20.5-14.6c6.8-3,16.8-8.7,26-8.9L240.6,62z M168.5,230.2c0,2.6,0.4,6,1,8.9
	c0.4,2.4,1.5,5.8,2.2,7.3l3.2-2.2c0,0-2.7-5.5-3.6-13.4c-0.9-8.1,0.6-15.5,0.6-15.5c-1.1,1.6-2.8,3.6-2.8,3.6
	S168.5,227.3,168.5,230.2z M163.7,234.4c0.3,5.4,1.9,11.8,2.8,15.7l3.2-2.1c-3.2-4.3-4-15.5-3.9-18.2c0.1-2.4,0.9-9.7,0.9-9.7
	l-2.2,2C164.5,222,163.5,231.3,163.7,234.4z M158.5,239.6c0.5,5.9,1.7,9.2,2.8,14.3l3-1.6c-2.1-6-2.6-9.7-2.8-11.9
	c-0.3-3.8-0.5-7.3-0.4-9.7c0-1.5,0.4-6,0.4-6l-2.6,2c0,0-0.5,3.7-0.6,5C158.3,233.7,158.4,237.7,158.5,239.6z"/>
</svg>
