<svg viewBox="0 0 157 50" fill="none" xmlns="http://www.w3.org/2000/svg" className="block w-48 h-auto max-w-full text-slate-100"><path d="M41.63 6.32c-1.07-.96-2.23-1.82-3.46-2.58A24.91 24.91 0 0 0 26.45.04c-.36-.02-.73-.03-1.1-.04h-.36C11.19 0 0 11.14 0 24.87c0 7.86 3.67 14.87 9.39 19.43l.5.39c3.09 2.34 6.74 3.97 10.72 4.67 1.42.25 2.88.38 4.38.38.4 0 .79 0 1.18-.03.32-.01.63-.04.95-.06.32-.03.64-.06.95-.1.33-.04.65-.09.97-.14.36-.06.72-.13 1.08-.2.33-.07.66-.14.99-.23 1.18-.3 2.32-.67 3.43-1.13.15-.07.32-.14.49-.21 8.8-3.85 14.94-12.6 14.94-22.78 0-1.41-.12-2.79-.34-4.14l-.12-.64a23.419 23.419 0 0 0-.64-2.55 24.833 24.833 0 0 0-5.66-9.69l-.46-.48c-.36-.36-.74-.72-1.12-1.06Z" style="fill-rule: evenodd; fill: rgb(239, 111, 38);"></path><path d="m38.64 3.97-.48-.3-.24-.15c-1.77.24-3.19.77-4.55 1.53-1.8 1.01-3.47 1.92-4.91 3.29-.69.66-1.51 1.2-2.15 1.91-.67.74-1.34 1.38-2.02 2.13-1.27 1.39-2.58 2.99-3.64 4.59-2.17 3.27-4.36 6.64-5.81 10.62-1.44 3.93-2.98 8.29-2.91 13.7.01.91.18 1.75.28 2.39.15.79.25 1.26.45 2.21.05.22.11.45.18.68.25.14.5.27.75.4-.13-.3-.23-.56-.28-.72-.38-1.3-.78-3.12-.8-4.8-.07-5.93 1.7-11.18 3.51-15.19 1.03-2.28 1.97-4.04 3.18-6.13.55-.95 1.25-1.89 1.88-2.81.69-1.01 1.37-1.73 2.03-2.65 2.16-3.03 6.44-6.89 9.79-8.71 1.39-.76 3.6-1.82 5.76-1.98ZM28.21.14c-.35-.05-.71-.08-1.06-.11-.29.16-.57.33-.8.49-2.53 1.78-4.01 3-6.18 5.14-1.65 1.63-3.89 4.15-5.14 6.12-1.41 2.22-3.12 4.63-4.27 7.11-.6 1.3-1.16 2.57-1.77 3.89-.58 1.26-1.01 2.8-1.51 4.15-.28.75-1.01 3.73-1.1 4.58-.08.7-.25 1.75-.39 2.5-.18 1.02-.1 1.59-.13 2.77-.03 1.07-.01 2.98.2 4.28.24.28.49.55.74.82-.25-.97-.41-2.02-.42-3.16l-.03-2.31c-.05-4.1 1.88-10.67 3.16-13.53 1.86-4.16 3.51-7.2 5.95-10.74 1.04-1.52 2.41-3.26 3.64-4.6 1.41-1.54 2.72-2.67 4.22-4.09 1.34-1.26 3.2-2.4 4.89-3.33ZM17.63 48.61c.21.06.43.13.64.19-.29-1.05-.68-1.75-.84-3.26-.21-1.74-.13-2.61-.06-4.35.08-2.05 1.05-6.07 1.66-7.61.89-2.26 1.6-4.47 2.73-6.5 1.17-2.1 2.16-3.8 3.48-5.72.89-1.29 2.99-4.18 4.11-5.08.67-.54 1.55-1.62 2.29-2.3.66-.61 1.78-1.59 2.52-2.06 1.03-.65 1.67-1.15 2.8-1.77 1.19-.65 1.86-.87 3.21-1.35.93-.33 2.41-.55 3.59-.41-.18-.2-.36-.4-.54-.59l-.02-.02h-.68c-3.88.09-7.98 3.11-10.27 4.98-2.66 2.17-5.3 5.18-7.29 8.04-1.85 2.67-4.3 6.66-5.45 9.93-.32.9-.76 1.88-1.03 2.8-.29.98-.57 2.11-.89 3.04-.36 1.05-.94 5.45-.86 6.95.05.83.1 2.27.25 3.01.1.54.65 2.09.65 2.09Zm1.7.46c.43.1.87.18 1.31.26h.01l.45-.11c0 .06.01.13.02.2l.59.09c-.07-.23-.11-.43-.12-.56l1.83-.66c.03.34.2.94.34 1.4.19 0 .38.01.57.02-.2-.71-.34-1.4-.34-1.65 0 0 .83-.4 1.51-.96 0 0-.06.47.01.98.09.61.13 1.02.36 1.59v.04l.32-.01h.25c-.26-.89-.43-1.96-.45-2.96l1.23-.73c.02 1.54.12 2.55.41 3.58l.45-.05h.05c-.24-.77-.38-1.84-.41-2.56-.02-.38-.07-1.25-.07-1.25s.61-.29.9-.57c-.07.69-.02 1.56.09 2.4.09.68.19 1.21.42 1.83l.51-.09c-.38-.92-.4-2.29-.43-3.59v-.96s.4-.33.69-.63c0 0-.09.69-.06 1.76.04 1.43.19 2.3.52 3.16l-.32.18.17-.04c.33-.07.66-.15.99-.23.37-.09.74-.19 1.1-.3a1.74 1.74 0 0 1-.11-.18l.5-.37c.12.08.24.19.36.3.18-.06.35-.12.52-.18-.17-.16-.3-.32-.41-.5 0 0 .5-.34.57-.4.03.08.36.41.61.61l.27-.11c.12-.05.26-.11.39-.17-.37-.28-.61-.44-.82-.77l.57-.42c.57.39.84.64 1.14.79.26-.12.51-.25.76-.38-.61-.19-1.3-.66-1.4-.95l.5-.37c.59.4.97.75 1.91.76.36-.21.72-.43 1.06-.66-.05 0-.09.02-.13.02l-1.17.02c-.45 0-.99-.24-1.18-.51.29-.48 2.54-2.74 3.12-3.37.85-.93 2.16-2.57 2.88-3.63 1.87-2.78 3.28-5.19 4.79-8.33.43.3.91 1.29.94 2.03.01.25.06.74.06.99 0 .49-.11 1.49-.27 1.95-.42 1.17-.8 2.18-1.54 3.25-.66 1.04-1.43 2.1-2.21 2.97-.35.39-.72.8-1.03 1.12a24.97 24.97 0 0 0 5.58-8.86l-.06.09c-.02-1.56-.17-3.79-1.22-4.07l.33-.81c.56.38 1.2 1.61 1.29 2.56.05.6.01 1.23.01 1.23.17-.52.32-1.06.45-1.6-.17-1.23-.77-2.22-1.5-2.73l.24-.72c.51.14 1.22 1.22 1.54 2.13.07-.36.12-.72.18-1.08-.36-.71-.96-1.31-1.47-1.58l.16-.72c.45.03 1.03.58 1.45 1.19.03-.27.05-.55.06-.82l-.06-.06c-.16-.16-.35-.4-.51-.52s-.43-.33-.61-.41c.08-.34.09-.48.16-.72.24.06.67.35 1.07.7v-.77c-.4-.32-.7-.46-.83-.57l.08-.71c.21.08.43.13.72.31-.01-.23-.03-.46-.04-.69-.13-.06-.28-.12-.44-.16l.07-.71c.08 0 .18.01.29.04-.02-.22-.05-.45-.08-.67h-.05l.03-.14c-.03-.21-.06-.42-.1-.63l-.12-.64-.07-.35v.15s-.85-.14-2.09 0c-.86.1-1.92.44-1.92.44l.24-1.07s.71-.28 1.74-.39c1.12-.12 1.75-.01 1.83 0l-.07-.29-.08-.29s-.79-.08-1.72.01c-.87.09-1.56.32-1.56.32l.37-1.5s.77-.13 1.28-.17c.59-.05 1.14-.06 1.2-.04-.06-.19-.13-.37-.2-.56 0 0-.51-.04-1.08 0s-1.09.13-1.09.13l.25-1.76s.24-.03.67-.05c.29-.01.58 0 .58 0-.09-.21-.19-.42-.29-.62l-.9.02-.02-1.74c-.22-.37-.44-.74-.68-1.09-7.29.19-14.33 7.46-17.44 12.08-3.6 5.35-8.14 12.79-8.03 21.86l.38 3.58-1.52.35Zm27.96-28.61c-.78.12-1.94.51-1.94.51l-.4.91c.31-.14 1.03-.43 2.17-.58 1.53-.18 2.07-.08 2.07-.08l.18-.84s-1.11-.07-2.08.08Zm-.23 1.45c-1.25.09-2.44.69-2.44.69l-.2.7s.99-.57 2.43-.72c1.12-.12 2.04.04 2.04.04l.19-.72s-1.14-.05-2.02 0Zm-.45 1.31c-1.04.12-2.05.64-2.25.73l-.42.71c.85-.35 1.75-.8 2.88-.86.69-.03 1.76.15 1.76.15l.16-.81s-1.23-.02-2.12.08Zm.02 1.21c-1.62.25-2.56.8-2.92.96l-.37.61c.48-.23 1.58-.8 3.09-.98.95-.12 1.45.11 1.75.18l.26-.69c-.28-.02-1.02-.21-1.81-.08Zm-1.06 1.37c-.95.17-2.52 1.07-2.52 1.07l-.12.4s1.31-.79 2.81-.97c1.23-.15 1.99.12 1.99.12l.19-.65s-.94-.22-2.36.04Zm-3.47 2.67-.25.5c.62-.45 2.11-1.23 3.24-1.42 1.25-.22 1.84.05 2.27.16l.19-.79s-.59-.1-.79-.1c-.29-.01-1.98-.37-4.67 1.66Zm-2.96 3.69-2.06 2.98.13.1 1.93-3.08Zm1.72-2.73c-1.59 1.17-5.22 6.07-5.68 8.29.29-.53.56-1.33 1.21-2.35.46-.8.84-1.41 1.33-2.14.49-.73 1.06-1.28 1.52-1.95.37-.55 1.48-1.19 1.62-1.85Zm-1.35.54c.54-.6 2.28-1.83 2.42-2.43-1.71 1.26-3.52 3.23-4.76 5.02-.69.99-3.21 5.22-3.22 6.52.32-.24 1.24-2.82 1.55-3.41.64-1.21 1.07-1.94 1.82-3.04.7-1.02 1.38-1.76 2.19-2.66Zm1.57-2.43c.47-.39 1.37-.78 1.5-1.44-2.13 1.25-4.59 4.04-6.02 6.1-.85 1.22-1.59 2.44-2.24 3.85-.33.71-1.57 3.61-1.62 4.39.46-.34 1.31-3.52 1.77-4.32.84-1.44 1.26-2.48 2.25-3.83.91-1.26 1.63-2.25 2.77-3.3.59-.54.94-.91 1.58-1.45Zm.35-1.31c.55-.46 1.67-.88 1.81-1.56-1.95.52-6.04 5.27-7.2 6.99-1.04 1.55-1.72 2.8-2.63 4.5-.38.72-1.79 4.43-1.78 5.37l.4-.38c-.01-2.48 3.16-8 4.32-9.6 1.11-1.53 2.01-2.37 3.21-3.72.56-.62 1.22-1.07 1.86-1.6ZM45.71 28c-1.49.14-4.07 1.49-4.65 2.32-.46.64-.84 1.5-1.34 2.22-.47.67-.97 1.39-1.39 2.08-.95 1.57-2.2 2.28-2.79 4.24-.63 2.1-.82 3.97.16 5.88 1.88-1.39 5.03-5.43 6.46-7.49.86-1.25 4.81-7.7 4.9-9.1 0 0-.32-.25-1.34-.15Zm-1.82-4.95c-1.1.29-3.83 2.69-4.71 3.49-1.49 1.37-2.5 2.89-3.76 4.48-2.31 2.93-4.05 7.13-4.95 11.51l.5-.37c-.01-1.47 1.43-5.05 1.94-6.17.86-1.92 1.85-3.4 2.95-5.04.86-1.27 2.56-3.29 3.7-4.27.72-.62 1.41-1.23 2.19-1.79.6-.43 2.08-.97 2.14-1.84Zm-.44-.45c1.04-.45.62-.29 1.09-1.25-1.29.35-4.69 2.93-5.54 3.86-1.64 1.81-2.89 3.01-4.34 5.11-1.18 1.71-2.6 4.03-3.42 6.05-.64 1.57-2.07 5.28-2.09 7.34.48-.46.74-.65.74-.65.59-3.88 1.37-5.21 1.77-6.35.58-1.66 2.39-4.81 3.39-6.08.35-.44.69-.94 1.02-1.41.36-.52.73-.79 1.09-1.25.78-1.02 1.47-1.51 2.27-2.4.4-.45 2.05-1.73 2.61-2.06.45-.26 1-.72 1.43-.9Zm-4.04 1.46c1.02-.85 1.8-1.42 2.92-2.17.56-.38 1.01-.64 1.65-.94.75-.34 1.03-.33 1.04-1.48-1.8.48-5.19 2.98-6.42 4.19-.94.93-1.68 1.75-2.56 2.72-.91 1-1.49 1.94-2.31 2.98-2.13 2.71-6.05 10.55-5.99 15.35l.82-.49c-.01-2.4 1.47-6.36 2.24-8.14.97-2.24 2.4-4.74 3.78-6.56 1.5-1.98 2.95-3.88 4.85-5.46Zm-8.86 2.73c-.94 1.37-1.78 2.75-2.61 4.25-.86 1.54-1.37 3.03-2.1 4.69-.61 1.39-1.28 3.61-1.57 5.24-.42 2.45-.43 6.38-.43 6.38 1.1-.54 1.55-.93 1.55-.93v-.6c-.07-6.65 3.97-14.34 6.76-18.18 1.67-2.3 3.63-4.81 5.8-6.59 1.65-1.35 5.31-4.19 7.78-4.46l.18-1.87h-.29c-1.14.02-4.07 1.39-4.86 1.93-1.53 1.03-2.5 1.71-3.88 2.85-2.22 1.84-4.67 4.83-6.33 7.27Zm3.52 15.85c.01 1.22.23 2.19.7 2.92l.53-.42c-.5-.95-.8-1.52-.82-2.96 0 0-.08-1.09.48-3.42l-.43.65c-.38 1.55-.47 2.22-.46 3.22Zm4.41-19.62c1.05-.87 1.98-1.68 3.12-2.41.55-.35 3.01-1.82 3.66-1.85l.32-1.52c-8.73 2.33-19.8 17.33-19.67 28.85l1.24-.84c-.06-5.77 3.78-12.78 6.16-16.23 1.28-1.86 3.49-4.61 5.18-6Zm-5.32 20.79c.05 1.07.62 2.58.62 2.58l.58-.36c-.45-.88-.82-1.66-.79-3.01.01-.71.14-2.84.14-2.84l-.41.7s-.17 1.01-.15 2.94Zm12.86-32c-7.88.15-14.44 7.93-17.89 12.92-2.34 3.38-5.86 8.9-6.87 16.47-.66 5 .08 7.2.08 7.2l2-.75s-.45-4.92 1.19-10.37c.8-2.65 2.87-7.34 6.15-11.59 2.14-2.81 3.74-4.8 6.45-7.06.92-.77 2.89-2.33 3.93-2.8 1.31-.58 3.23-1.67 4.99-1.71l-.03-2.31ZM32.18 44.1c0 .5.08 1.15.19 1.71.08.45.3 1.1.42 1.4l.61-.41s-.51-1.05-.69-2.56.11-2.98.11-2.98c-.2.3-.53.69-.53.69s-.11 1.62-.11 2.16Zm-.93.82c.06 1.03.37 2.28.54 3.02l.61-.41c-.61-.83-.77-2.97-.74-3.5.03-.47.18-1.87.18-1.87l-.43.38s-.19 1.79-.15 2.39Zm-.99 1c.1 1.13.32 1.77.53 2.75l.57-.3c-.4-1.16-.51-1.87-.54-2.28-.07-.72-.09-1.4-.08-1.87 0-.29.08-1.16.08-1.16l-.5.39s-.1.72-.11.96c-.02.38 0 1.14.04 1.51Z" style="fill: rgb(255, 255, 255); fill-rule: evenodd;"></path><path d="M56.55 43.41v-3.74h-1.26v-.87h3.52v.87h-1.25v3.74h-1.01Zm4.05.1c-.57 0-1.03-.17-1.36-.5-.33-.33-.5-.79-.5-1.39 0-.39.07-.72.21-1s.35-.5.61-.65c.26-.15.57-.23.92-.23.52 0 .91.17 1.19.5.28.33.42.81.42 1.44v.23h-2.36c.09.5.42.75.99.75.18 0 .35-.02.54-.07.18-.04.34-.1.48-.18l.16.78c-.38.2-.82.3-1.3.3Zm-.88-2.33h1.43a.63.63 0 0 0-.21-.47c-.12-.12-.29-.18-.5-.18s-.36.06-.49.17c-.13.12-.21.27-.24.48Zm4.8 2.33c-.59 0-1.05-.16-1.38-.47s-.49-.76-.49-1.33c0-.39.08-.74.23-1.03.15-.3.37-.53.64-.69.28-.16.6-.25.96-.25.18 0 .36.02.54.06.18.04.33.08.43.14l-.19.82a1.8 1.8 0 0 0-.35-.12c-.13-.03-.25-.05-.35-.05-.28 0-.51.1-.69.29-.18.19-.26.45-.26.77s.09.57.27.75c.18.18.43.26.76.26.22 0 .45-.04.7-.12l.15.79a2.565 2.565 0 0 1-.97.19Zm1.66-.1v-3.57h.96v.62c.15-.25.32-.43.52-.54.2-.11.42-.17.68-.17.38 0 .68.11.9.34.22.23.33.55.33.95v2.37h-.98v-2.22c0-.19-.05-.33-.14-.44a.482.482 0 0 0-.37-.15c-.19 0-.37.07-.53.21s-.29.32-.38.52v2.07h-.98Zm5.92.1a1.9 1.9 0 0 1-.96-.24c-.27-.16-.49-.38-.64-.66-.15-.28-.23-.61-.23-.99s.08-.71.23-.99c.15-.28.36-.5.64-.66.27-.16.59-.24.95-.24s.68.08.95.23c.27.15.48.37.63.65.15.28.23.61.23.98s-.08.71-.23 1c-.15.29-.36.51-.63.67s-.59.24-.95.24Zm0-.85c.25 0 .45-.1.6-.29.15-.19.23-.44.23-.76s-.08-.56-.23-.75c-.15-.19-.35-.28-.6-.28s-.45.09-.6.28c-.15.19-.23.44-.23.75s.08.57.23.76c.15.19.35.29.6.29Zm2.24.75v-.84h.63v-3.39h-.6v-.83h1.57v4.22h.63v.84h-2.24Zm4.45.1a1.9 1.9 0 0 1-.96-.24c-.27-.16-.49-.38-.64-.66-.15-.28-.23-.61-.23-.99s.08-.71.23-.99c.15-.28.36-.5.64-.66.27-.16.59-.24.95-.24s.68.08.95.23c.27.15.48.37.63.65.15.28.23.61.23.98s-.08.71-.23 1c-.15.29-.36.51-.63.67s-.59.24-.95.24Zm0-.85c.25 0 .45-.1.6-.29.15-.19.23-.44.23-.76s-.08-.56-.23-.75c-.15-.19-.35-.28-.6-.28s-.45.09-.6.28c-.15.19-.23.44-.23.75s.08.57.23.76c.15.19.35.29.6.29Zm3.76 2.32c-.17 0-.35-.01-.56-.03-.21-.02-.42-.06-.64-.12l.19-.86c.19.06.38.1.56.14s.37.06.55.06c.24 0 .42-.04.55-.11.13-.08.22-.2.27-.36.05-.16.08-.37.09-.63h-.02c-.26.3-.6.46-1.01.46s-.72-.15-.95-.46c-.23-.31-.34-.73-.34-1.28 0-.66.17-1.16.51-1.51s.83-.52 1.46-.52c.19 0 .4.02.62.05.22.03.45.07.69.12 0 .36 0 .71.01 1.07v2.05c0 .66-.17 1.15-.49 1.47-.32.32-.8.49-1.46.49Zm.22-2.32c.15 0 .29-.05.41-.16.13-.11.24-.26.34-.45v-1.39c-.15-.04-.3-.06-.44-.06-.3 0-.52.09-.67.28-.15.19-.22.46-.22.82 0 .3.05.53.15.7.1.17.24.25.43.25Zm2.5.75v-.84h.67v-1.89h-.67v-.84h1.64v2.73h.6v.84h-2.24Zm.54-4.16v-.9h1.12v.9h-1.12Zm3.3 4.26c-.37 0-.66-.16-.88-.47-.22-.31-.33-.74-.33-1.29 0-.66.17-1.16.5-1.5.33-.34.81-.52 1.43-.52.35 0 .76.06 1.23.17v3.5h-.93l.02-.57h-.03c-.24.45-.58.67-1.03.67Zm.21-.85c.15 0 .3-.08.44-.24.14-.16.26-.36.37-.6v-1.16c-.07-.02-.15-.04-.23-.05-.08 0-.15-.01-.21-.01-.56 0-.84.37-.84 1.12 0 .29.04.52.12.69.08.17.2.25.35.25Zm5.69.85c-.57 0-1.03-.17-1.36-.5-.33-.33-.5-.79-.5-1.39 0-.39.07-.72.21-1s.35-.5.61-.65c.26-.15.57-.23.92-.23.52 0 .91.17 1.19.5.28.33.42.81.42 1.44v.23h-2.36c.09.5.42.75.99.75.18 0 .35-.02.54-.07.18-.04.34-.1.48-.18l.16.78c-.38.2-.82.3-1.3.3Zm-.88-2.33h1.43a.63.63 0 0 0-.21-.47c-.12-.12-.29-.18-.5-.18s-.36.06-.49.17c-.13.12-.21.27-.24.48Zm3.1 2.23v-3.57h.96v.55c.28-.43.66-.65 1.14-.65.27 0 .5.06.7.19.19.13.33.31.42.54.16-.25.34-.44.54-.56.2-.12.43-.18.69-.18.38 0 .68.11.9.34.21.23.32.55.32.95v2.37h-.98v-2.22c0-.19-.04-.33-.14-.44a.46.46 0 0 0-.36-.15c-.19 0-.37.08-.53.24-.16.16-.28.36-.36.6v1.97h-.98v-2.22c0-.18-.05-.33-.14-.43a.475.475 0 0 0-.37-.16c-.17 0-.33.06-.48.19-.15.13-.27.31-.37.54v2.08h-.98Zm9.17.09c-.27 0-.53-.03-.77-.09s-.45-.14-.62-.24l.08-.93c.21.13.43.23.65.3.23.07.44.11.63.11.22 0 .4-.05.54-.14.14-.09.21-.21.21-.37 0-.11-.03-.2-.1-.26a.877.877 0 0 0-.27-.16c-.11-.05-.23-.1-.37-.15-.15-.06-.31-.13-.47-.2-.16-.07-.31-.15-.44-.25-.14-.1-.25-.23-.33-.38-.09-.16-.13-.36-.13-.6 0-.44.15-.79.45-1.04s.72-.38 1.25-.38c.41 0 .83.08 1.25.25l-.15.91c-.17-.1-.35-.17-.55-.23-.2-.06-.38-.08-.56-.08-.22 0-.39.04-.51.13s-.18.2-.18.34c0 .13.05.24.15.31.1.07.23.14.38.2s.32.13.5.2.36.15.52.26c.16.1.3.24.41.42.11.17.16.4.16.67 0 .45-.15.8-.45 1.05-.3.25-.73.37-1.28.37Zm4.18.01c-.57 0-1.03-.17-1.36-.5-.33-.33-.5-.79-.5-1.39 0-.39.07-.72.21-1s.35-.5.61-.65c.26-.15.57-.23.92-.23.52 0 .91.17 1.19.5.28.33.42.81.42 1.44v.23h-2.36c.09.5.42.75.99.75.18 0 .35-.02.54-.07.18-.04.34-.1.48-.18l.16.78c-.38.2-.82.3-1.3.3Zm-.88-2.33h1.43a.63.63 0 0 0-.21-.47c-.12-.12-.29-.18-.5-.18s-.36.06-.49.17c-.13.12-.21.27-.24.48Zm4.29 3.8c-.17 0-.35-.01-.56-.03-.21-.02-.42-.06-.64-.12l.19-.86c.19.06.38.1.56.14s.37.06.55.06c.24 0 .42-.04.55-.11.13-.08.22-.2.27-.36.05-.16.08-.37.09-.63h-.02c-.26.3-.6.46-1.01.46s-.72-.15-.95-.46c-.23-.31-.34-.73-.34-1.28 0-.66.17-1.16.51-1.51s.83-.52 1.46-.52c.19 0 .4.02.62.05.22.03.45.07.69.12 0 .36 0 .71.01 1.07v2.05c0 .66-.17 1.15-.49 1.47-.32.32-.8.49-1.46.49Zm.22-2.32c.15 0 .29-.05.41-.16.13-.11.24-.26.34-.45v-1.39c-.15-.04-.3-.06-.44-.06-.3 0-.52.09-.67.28-.15.19-.22.46-.22.82 0 .3.05.53.15.7.1.17.24.25.43.25Zm3.84.84c-.38 0-.68-.12-.89-.35-.22-.23-.33-.55-.33-.95v-2.37h.98v2.21c0 .19.05.34.14.44.09.1.22.16.37.16s.31-.05.46-.15.26-.24.36-.41v-2.25h.98v3.57h-.98v-.47c-.12.16-.27.3-.44.41-.17.11-.39.16-.65.16Zm2.99-.09v-3.57h.98v.58h.06c.12-.21.25-.38.38-.5s.3-.18.52-.18c.08 0 .15 0 .21.03l-.1 1.05c-.05-.01-.1-.03-.15-.03-.05 0-.09-.01-.15-.01-.17 0-.31.05-.41.15s-.22.23-.35.4v2.09h-.98Zm3.65.1c-.37 0-.66-.16-.88-.47-.22-.31-.33-.74-.33-1.29 0-.66.17-1.16.5-1.5.33-.34.81-.52 1.43-.52.35 0 .76.06 1.23.17v3.5h-.93l.02-.57h-.03c-.24.45-.58.67-1.03.67Zm.21-.85c.15 0 .3-.08.44-.24.14-.16.26-.36.37-.6v-1.16c-.07-.02-.15-.04-.23-.05-.08 0-.15-.01-.21-.01-.56 0-.84.37-.84 1.12 0 .29.04.52.12.69.08.17.2.25.35.25Zm2.7.75v-3.57h.96v.62c.15-.25.32-.43.52-.54.2-.11.42-.17.68-.17.38 0 .68.11.9.34.22.23.33.55.33.95v2.37h-.98v-2.22c0-.19-.05-.33-.14-.44a.482.482 0 0 0-.37-.15c-.19 0-.37.07-.53.21s-.29.32-.38.52v2.07h-.98Zm5.94.1c-.59 0-1.05-.16-1.38-.47s-.49-.76-.49-1.33c0-.39.08-.74.23-1.03.15-.3.37-.53.64-.69.28-.16.6-.25.96-.25.18 0 .36.02.54.06.18.04.33.08.43.14l-.19.82a1.8 1.8 0 0 0-.35-.12c-.13-.03-.25-.05-.35-.05-.28 0-.51.1-.69.29-.18.19-.26.45-.26.77s.09.57.27.75c.18.18.43.26.76.26.22 0 .45-.04.7-.12l.15.79a2.565 2.565 0 0 1-.97.19Zm-.03 1.58c-.17 0-.33-.03-.49-.09-.16-.06-.3-.13-.4-.23l.21-.3c.1.06.2.12.3.16.11.04.2.06.29.06.07 0 .13-.02.18-.05.05-.03.07-.09.07-.16 0-.09-.06-.15-.17-.18s-.23-.04-.35-.03l-.15-.1.32-.93.5.03-.22.51c.22.03.39.11.53.22s.2.26.2.44c0 .19-.08.34-.25.46-.17.12-.36.18-.58.18Zm2.69-1.58c-.37 0-.66-.16-.88-.47-.22-.31-.33-.74-.33-1.29 0-.66.17-1.16.5-1.5.33-.34.81-.52 1.43-.52.35 0 .76.06 1.23.17v3.5h-.93l.02-.57h-.03c-.24.45-.58.67-1.03.67Zm.21-.85c.15 0 .3-.08.44-.24.14-.16.26-.36.37-.6v-1.16c-.07-.02-.15-.04-.23-.05-.08 0-.15-.01-.21-.01-.56 0-.84.37-.84 1.12 0 .29.04.52.12.69.08.17.2.25.35.25Zm4.03.75V38.8h1v3.74h1.66v.87h-2.67Zm3.76 0v-3.74h-1.26v-.87h3.52v.87h-1.25v3.74h-1.01Zm3.68 0h-.73V38.8h1.76c.46 0 .85.1 1.18.27.33.18.59.43.77.76.18.33.27.71.27 1.15 0 .49-.11.91-.32 1.27-.21.36-.5.64-.88.85s-.82.31-1.33.32h-.72Zm.27-.88h.45c.47 0 .83-.14 1.1-.41.27-.27.4-.65.4-1.12 0-.43-.11-.76-.34-.99-.23-.23-.56-.35-.99-.35h-.62v2.87Zm3.21.88 1.69-4.61h1.21l1.71 4.61h-1.04l-.37-1.05h-1.82l-.35 1.05h-1.03Zm1.67-1.91h1.23l-.62-1.77-.6 1.77Z" fill="url(#a)"></path><path d="M55.9 34.46V6.84h6.01v27.62H55.9Zm12.15 0V6.84c.61-.03 1.31-.04 2.09-.04h4.96c.8 0 1.51.01 2.11.04 2.82.06 5.05.81 6.7 2.26 1.64 1.45 2.47 3.49 2.47 6.12 0 1.88-.42 3.52-1.27 4.94s-2 2.5-3.48 3.28c-1.48.77-3.19 1.16-5.12 1.16h-2.7v9.87h-5.76Zm5.76-14.76h2.45c1.35 0 2.41-.39 3.17-1.16.76-.77 1.14-1.82 1.14-3.15 0-2.43-1.34-3.65-4.02-3.65h-2.74v7.96ZM98.24 35c-1.63 0-3.17-.18-4.62-.54s-2.69-.84-3.71-1.45l.5-5.56c1.24.77 2.55 1.38 3.92 1.8 1.37.43 2.63.64 3.8.64 1.33 0 2.4-.28 3.23-.83.83-.55 1.24-1.29 1.24-2.2 0-.66-.21-1.18-.62-1.56-.42-.37-.95-.7-1.62-.97-.66-.28-1.4-.58-2.2-.91-.91-.39-1.85-.79-2.8-1.2-.95-.41-1.84-.92-2.65-1.51-.82-.59-1.48-1.36-1.99-2.3-.51-.94-.77-2.13-.77-3.57 0-2.63.9-4.71 2.7-6.24 1.8-1.53 4.3-2.3 7.51-2.3 2.46 0 4.95.5 7.47 1.49l-.91 5.47c-1.02-.58-2.12-1.04-3.3-1.37-1.18-.33-2.29-.5-3.34-.5-1.3 0-2.31.26-3.03.77-.72.51-1.08 1.2-1.08 2.05 0 .8.3 1.42.89 1.85.59.43 1.35.84 2.26 1.22.91.39 1.91.78 3.01 1.18 1.09.4 2.13.91 3.11 1.53s1.79 1.45 2.43 2.49.95 2.37.95 4c0 2.68-.91 4.77-2.72 6.26-1.81 1.49-4.36 2.24-7.65 2.24Zm15.14-.54V6.84h16.8v5.23h-10.87v5.52h7.49v5.06h-7.49v6.59h10.87v5.23h-16.8Zm34.46.54c-4.4 0-7.85-1.19-10.35-3.57s-3.75-5.74-3.75-10.08c0-3.01.59-5.63 1.76-7.86 1.17-2.22 2.83-3.96 4.98-5.2 2.14-1.24 4.64-1.87 7.49-1.87 1.19 0 2.34.11 3.44.33 1.11.22 2.17.53 3.19.91l-1.12 5.35c-.91-.41-1.82-.73-2.74-.95-.91-.22-1.82-.33-2.74-.33-2.54 0-4.54.83-5.99 2.49-1.45 1.66-2.18 3.84-2.18 6.55s.77 4.96 2.32 6.51c1.55 1.55 3.69 2.32 6.43 2.32.83 0 1.69-.08 2.59-.23.9-.15 1.78-.37 2.63-.64l.91 5.1c-2.02.77-4.31 1.16-6.88 1.16Z" style="fill: url(&quot;#a&quot;); stroke: url(&quot;#a&quot;); stroke-miterlimit: 10; stroke-width: 1px;"></path><defs><linearGradient id="a" x1="-2.72961e-07" y1="22.9922" x2="224.397" y2="22.9922" gradientUnits="userSpaceOnUse"><stop stopColor="#000"></stop></linearGradient><linearGradient id="paint1_linear_499_29" x1="-2.72961e-07" y1="22.9922" x2="224.397" y2="22.9922" gradientUnits="userSpaceOnUse"><stop stopColor="#000"></stop><stop offset="1" stopColor="#fff"></stop></linearGradient><linearGradient id="paint2_linear_499_29" x1="-2.72961e-07" y1="22.9922" x2="224.397" y2="22.9922" gradientUnits="userSpaceOnUse"><stop stopColor="#000"></stop><stop offset="1" stopColor="#fff"></stop></linearGradient><linearGradient id="paint3_linear_499_29" x1="-2.72961e-07" y1="22.9922" x2="224.397" y2="22.9922" gradientUnits="userSpaceOnUse"><stop stopColor="#000"></stop><stop offset="1" stopColor="#fff"></stop></linearGradient><linearGradient id="paint4_linear_499_29" x1="-2.72961e-07" y1="22.9922" x2="224.397" y2="22.9922" gradientUnits="userSpaceOnUse"><stop stopColor="#000"></stop><stop offset="1" stopColor="#fff"></stop></linearGradient><linearGradient id="paint5_linear_499_29" x1="-2.72961e-07" y1="22.9922" x2="224.397" y2="22.9922" gradientUnits="userSpaceOnUse"><stop stopColor="#000"></stop><stop offset="1" stopColor="#fff"></stop></linearGradient><linearGradient id="paint6_linear_499_29" x1="-2.72961e-07" y1="22.9922" x2="224.397" y2="22.9922" gradientUnits="userSpaceOnUse"><stop stopColor="#000"></stop><stop offset="1" stopColor="#fff"></stop></linearGradient><linearGradient id="paint7_linear_499_29" x1="-2.72961e-07" y1="22.9922" x2="224.397" y2="22.9922" gradientUnits="userSpaceOnUse"><stop stopColor="#000"></stop><stop offset="1" stopColor="#fff"></stop></linearGradient><linearGradient id="paint8_linear_499_29" x1="-2.72961e-07" y1="22.9922" x2="224.397" y2="22.9922" gradientUnits="userSpaceOnUse"><stop stopColor="#000"></stop><stop offset="1" stopColor="#fff"></stop></linearGradient></defs></svg>